<?xml version="1.0"?>
<svg xmlns="http://www.w3.org/2000/svg" xmlns:xlink="http://www.w3.org/1999/xlink" viewBox="0 0 131.233 21.696" height="82.001" width="495.999">
  <path d="M0 0h131.233v21.696H0z"/>
  <g transform="translate(-43.46 -120.193)" fill="#f75200">
    <path d="M82.912 130.128q0 1.265-.383 2.347-.376 1.074-1.07 1.862-.694.788-1.67 1.233-.976.438-2.17.438-1.186 0-2.162-.438-.976-.445-1.678-1.233-.694-.788-1.077-1.862-.383-1.082-.383-2.347 0-1.265.383-2.34.383-1.082 1.077-1.87.7-.788 1.678-1.225.976-.446 2.162-.446.795 0 1.497.207.7.2 1.287.573.586.366 1.05.9.47.525.795 1.177.325.652.492 1.416.174.764.174 1.607zm-2 0q0-.947-.23-1.694-.23-.756-.658-1.28-.427-.525-1.04-.803-.607-.278-1.374-.278-.767 0-1.38.278-.607.278-1.04.803-.427.525-.658 1.28-.23.748-.23 1.694 0 .947.23 1.702.23.748.658 1.273.434.517 1.04.796.615.278 1.38.278.767 0 1.374-.278.615-.278 1.04-.796.427-.525.658-1.273.23-.756.23-1.702zm3.43 8.416v-10.827h1.092q.347 0 .456.358l.145.756q.448-.565 1.027-.915.586-.35 1.367-.35.607 0 1.106.278.506.278.868.8.37.525.564 1.305.202.772.202 1.774 0 .915-.224 1.694-.224.78-.644 1.352-.412.573-1.005.9-.587.32-1.307.32-.63 0-1.07-.207-.434-.215-.78-.6v3.34zm3.47-9.427q-.557 0-.955.263-.4.255-.73.724v3.66q.304.414.658.58.362.16.78.16.405 0 .73-.167.325-.167.55-.5.23-.342.354-.86.123-.525.123-1.233 0-.716-.108-1.2-.1-.5-.296-.8-.195-.3-.477-.453-.275-.143-.63-.143zm8.024-1.517q.7 0 1.294.247.593.247 1.02.724.427.47.665 1.16.246.684.246 1.567 0 .445-.087.605-.087.15-.333.15h-4.58q.043.628.202 1.1.16.453.42.756.26.294.615.446.362.143.795.143.434 0 .745-.1.318-.1.55-.247.24-.135.412-.247.18-.1.347-.1.224 0 .333.183l.513.716q-.296.382-.665.644-.37.255-.774.414-.398.15-.817.215-.412.064-.803.064-.774 0-1.44-.278-.665-.286-1.157-.835-.492-.557-.774-1.368-.282-.82-.282-1.893 0-.835.246-1.567.246-.74.7-1.28.463-.55 1.12-.867.665-.318 1.497-.318zm.036 1.408q-.78 0-1.222.485-.44.485-.564 1.376h3.37q0-.382-.1-.716-.094-.342-.3-.597-.195-.255-.5-.398-.296-.15-.694-.15zm4.63 6.872v-8.162h1.092q.347 0 .456.358l.123.644q.224-.255.47-.46.253-.207.528-.358.282-.15.6-.23.318-.08.694-.08.607 0 1.077.23.47.223.78.636.318.406.477.978.166.565.166 1.25v5.195H105.2v-5.195q0-.748-.3-1.154-.3-.414-.947-.414-.463 0-.868.23-.405.23-.767.628v5.903z" fill="#fff"/>
    <path d="M117.682 134.767q-.795.644-1.698.946-.896.294-1.922.294-1.28 0-2.32-.437-1.033-.437-1.77-1.216-.73-.78-1.127-1.86-.397-1.08-.397-2.36 0-1.296.383-2.376.383-1.08 1.084-1.86.708-.78 1.712-1.208 1.004-.43 2.254-.43.636 0 1.185.1.556.1 1.026.3.477.2.867.47.4.278.715.612l-.556.97q-.13.23-.34.286-.2.048-.455-.12-.238-.15-.477-.302-.238-.15-.535-.262-.3-.1-.657-.183-.36-.072-.838-.072-.773 0-1.402.286-.62.286-1.062.82-.44.533-.68 1.28-.238.747-.238 1.67 0 .986.253 1.764.26.77.722 1.3.47.533 1.127.82.657.278 1.467.278.578 0 1.033-.127.455-.135.9-.366v-2.1h-1.315q-.188 0-.296-.1-.1-.12-.1-.286V130.1h3.468zm11.276-4.634q0 1.264-.383 2.32-.383 1.057-1.076 1.82-.694.763-1.67 1.184-.975.42-2.167.42h-3.98v-11.493h3.98q1.192 0 2.167.43.975.42 1.67 1.184.694.755 1.076 1.812.383 1.057.383 2.32zm-1.994 0q0-.946-.23-1.693-.224-.755-.657-1.272-.426-.525-1.04-.803-.607-.278-1.373-.278h-2.03v8.1h2.03q.766 0 1.373-.278.614-.278 1.04-.795.433-.525.657-1.272.23-.755.23-1.7z"/>
    <use xlink:href="#A"/>
    <use xlink:href="#A" x="8.495"/>
  </g>
  <defs>
    <path id="A" d="M137.5 124.387v.85q0 .382-.072.62-.072.23-.144.4l-3.96 8.965q-.123.278-.347.477-.224.2-.6.2h-1.293l4.04-8.782q.13-.27.26-.493.137-.23.303-.437h-4.992q-.166 0-.3-.135-.123-.135-.123-.318v-1.327z"/>
  </defs>
</svg>
